<?xml version="1.0" encoding="UTF-8" standalone="no"?>
<svg width="36px" height="36px" viewBox="0 0 36 36" version="1.1" xmlns="http://www.w3.org/2000/svg" xmlns:xlink="http://www.w3.org/1999/xlink">
    <!-- Generator: Sketch 50.2 (55047) - http://www.bohemiancoding.com/sketch -->
    <title>default_avatar</title>
    <desc>Created with Sketch.</desc>
    <defs>
        <circle id="path-1" cx="18" cy="18" r="18"></circle>
    </defs>
    <g id="Page-1" stroke="none" stroke-width="1" fill="none" fill-rule="evenodd">
        <g id="Assets" transform="translate(-323.000000, -223.000000)">
            <g id="Default-avatar" transform="translate(323.000000, 223.000000)">
                <mask id="mask-2" fill="white">
                    <use xlink:href="#path-1"></use>
                </mask>
                <use id="Mask" fill="#B39CD0" xlink:href="#path-1"></use>
                <g id="Group" mask="url(#mask-2)" fill="#845EC2" stroke="#845EC2" stroke-linecap="round" stroke-linejoin="round" stroke-width="1.5">
                    <g transform="translate(9.000000, 7.000000)">
                        <path d="M21.6513856,35.0871419 C23.5052411,32.5423222 24,31.1096082 24,27.4575683 C24,19.4728738 18.627417,13 12,13 C5.372583,13 0,19.4728738 0,27.4575683 C0,31.1142979 1.12681399,34.4539472 2.98492647,37 L21.6513856,35.0871419 Z" id="Oval-3"></path>
                        <ellipse id="Oval-2" cx="13" cy="6.5" rx="6" ry="6.5"></ellipse>
                    </g>
                </g>
                <g id="Message-icon" mask="url(#mask-2)" fill="#FFFFFF" stroke="#845EC2" stroke-linecap="round" stroke-linejoin="round" stroke-width="0.96">
                    <g transform="translate(-1.000000, 8.000000)" id="Oval">
                        <path d="M5.81066033,10.7723126 C6.53166215,10.9624844 7.31433815,11.0666673 8.13230275,11.0666673 C11.7221536,11.0666673 14.6323028,9.0599766 14.6323028,6.58459817 C14.6323028,4.10921973 11.7221536,2.10252903 8.13230275,2.10252903 C4.54245188,2.10252903 1.63230275,4.10921973 1.63230275,6.58459817 C1.63230275,7.86368258 2.34662775,8.98920138 3.59293508,9.80581179 L2.98858531,13.102529 L5.81066033,10.7723126 Z" transform="translate(8.132303, 7.602529) scale(-1, 1) rotate(23.000000) translate(-8.132303, -7.602529) "></path>
                    </g>
                </g>
                <g id="Ruby" mask="url(#mask-2)" fill="#CB3131" stroke="#612D7B" stroke-linecap="round" stroke-linejoin="round" stroke-width="0.6">
                    <g transform="translate(10.980490, 8.857702) scale(-1, 1) rotate(35.000000) translate(-10.980490, -8.857702) translate(6.480490, 4.857702)">
                        <polygon id="Path" points="2.96531792 2.01398601 4.46551225 7.98919713 5.96570658 2.01398601"></polygon>
                        <polygon id="Path" points="5.97418277 2.01398601 4.47398844 7.98919713 8.97457143 2.01398601"></polygon>
                        <polygon id="Path" points="0 2.01398601 4.50058299 7.98919713 3.00038866 2.01398601"></polygon>
                        <polygon id="Path-4" points="0 2.00369578 2.98196586 2.00369578 1.49098293 2.27373675e-13"></polygon>
                        <polygon id="Path-2" points="1.50867052 2.27373675e-13 3.00886485 2.02853761 4.50905918 2.27373675e-13 6.00925351 2.02853761 7.50944784 2.27373675e-13"></polygon>
                        <polygon id="Path-4" points="5.98265896 1.99635655 8.98304762 1.99635655 7.47364189 2.27373675e-13"></polygon>
                        <polygon id="Path-4" points="3.01734104 2.00369578 6.0177297 2.00369578 4.50832397 2.27373675e-13"></polygon>
                    </g>
                </g>
            </g>
        </g>
    </g>
</svg>