<?xml version="1.0" encoding="UTF-8" standalone="no"?>
<svg width="84px" height="84px" viewBox="0 0 84 84" version="1.1" xmlns="http://www.w3.org/2000/svg" xmlns:xlink="http://www.w3.org/1999/xlink">
    <!-- Generator: Sketch 50.2 (55047) - http://www.bohemiancoding.com/sketch -->
    <title>Logo slice</title>
    <desc>Created with Sketch.</desc>
    <defs></defs>
    <g id="Page-1" stroke="none" stroke-width="1" fill="none" fill-rule="evenodd" stroke-linecap="round" stroke-linejoin="round">
        <g id="Assets" transform="translate(-171.000000, -39.000000)" stroke="#612D7B">
            <g id="Logo" transform="translate(171.000000, 39.000000)">
                <g id="Ruby" transform="translate(55.500000, 42.000000) scale(-1, 1) rotate(-15.000000) translate(-55.500000, -42.000000) translate(33.000000, 21.000000)" fill="#CB3131" stroke-width="3">
                    <polygon id="Path" points="14.8265896 10.5734266 22.3275612 41.9432849 29.8285329 10.5734266"></polygon>
                    <polygon id="Path" points="29.8709138 10.5734266 22.3699422 41.9432849 44.8728572 10.5734266"></polygon>
                    <polygon id="Path" points="0 10.5734266 22.502915 41.9432849 15.0019433 10.5734266"></polygon>
                    <polygon id="Path-4" points="0 10.5194029 14.9098293 10.5194029 7.45491466 2.27373675e-13"></polygon>
                    <polygon id="Path-2" points="7.5433526 2.27373675e-13 15.0443243 10.6498224 22.5452959 2.27373675e-13 30.0462676 10.6498224 37.5472392 2.27373675e-13"></polygon>
                    <polygon id="Path-4" points="29.9132948 10.4808719 44.9152381 10.4808719 37.3682095 2.27373675e-13"></polygon>
                    <polygon id="Path-4" points="15.0867052 10.5194029 30.0886485 10.5194029 22.5416199 2.27373675e-13"></polygon>
                </g>
                <g id="Messages" transform="translate(23.500000, 42.000000) scale(-1, 1) translate(-23.500000, -42.000000) translate(3.000000, 19.000000)" fill="#B39CD0" stroke-width="2">
                    <path d="M8.80849252,28.8036504 C10.3284532,29.2135142 11.9784306,29.4380523 13.7028008,29.4380523 C21.2706487,29.4380523 27.4056015,25.1131736 27.4056015,19.7781653 C27.4056015,14.4431569 21.2706487,10.1182782 13.7028008,10.1182782 C6.13495287,10.1182782 0,14.4431569 0,19.7781653 C0,22.5348856 1.50588509,24.9606368 4.13325448,26.7206195 L2.85921071,33.8258014 L8.80849252,28.8036504 Z" id="Oval"></path>
                    <path d="M26.5406318,14.3733633 L21.9905924,18.2365563 L22.9649872,12.7710318 C20.9555625,11.4171989 19.8038543,9.55123647 19.8038543,7.43068238 C19.8038543,3.32682982 24.4958958,0 30.2838223,0 C36.0717488,0 40.7637903,3.32682982 40.7637903,7.43068238 C40.7637903,11.5345349 36.0717488,14.8613648 30.2838223,14.8613648 C28.9650157,14.8613648 27.703105,14.6886431 26.5406318,14.3733633 Z" id="Oval" transform="translate(30.283822, 9.118278) scale(-1, 1) translate(-30.283822, -9.118278) "></path>
                    <path d="M20.4542096,42.0808865 L15.9041702,45.9440795 L16.878565,40.478555 C14.8691403,39.1247221 13.7174321,37.2587597 13.7174321,35.1382056 C13.7174321,31.034353 18.4094736,27.7075232 24.1974001,27.7075232 C29.9853266,27.7075232 34.6773681,31.034353 34.6773681,35.1382056 C34.6773681,39.2420581 29.9853266,42.568888 24.1974001,42.568888 C22.8785935,42.568888 21.6166828,42.3961663 20.4542096,42.0808865 Z" id="Oval" transform="translate(24.197400, 36.825801) scale(-1, 1) translate(-24.197400, -36.825801) "></path>
                </g>
            </g>
        </g>
    </g>
</svg>