<?xml version="1.0" encoding="UTF-8" standalone="no"?>
<svg width="28px" height="28px" viewBox="0 0 28 28" version="1.1" xmlns="http://www.w3.org/2000/svg" xmlns:xlink="http://www.w3.org/1999/xlink">
    <!-- Generator: Sketch 50.2 (55047) - http://www.bohemiancoding.com/sketch -->
    <title>users_logo</title>
    <desc>Created with Sketch.</desc>
    <defs></defs>
    <g id="Page-1" stroke="none" stroke-width="1" fill="none" fill-rule="evenodd" stroke-linecap="round" stroke-linejoin="round">
        <g id="Assets" transform="translate(-199.000000, -161.000000)" stroke="#845EC2" stroke-width="1.5">
            <g id="Users-icon" transform="translate(199.000000, 161.000000)">
                <path d="M10.8282597,13.0842201 C9.94495764,11.5839289 8.52480872,10.7679809 6.87805367,10.7679809 C4.18397902,10.7679809 2,13.3898782 2,16.6241525 C2,18.1053446 2.45805493,19.4581004 3.21338596,20.4894026 L8.89436288,19.5937837" id="Oval-3"></path>
                <ellipse id="Oval-2" cx="7.03291252" cy="7.78893247" rx="2.71002982" ry="2.78893247"></ellipse>
                <path d="M20.2510213,19.9537288 C21.3028979,19.846691 22.8807129,19.6861342 24.9844661,19.4720585 C25.6662951,18.5426462 25.8482624,18.0193942 25.8482624,16.6856059 C25.8482624,13.7694569 23.8722814,11.4054511 21.4347853,11.4054511 C20.1911998,11.4054511 19.0677437,12.0207866 18.2655367,13.0108439" id="Oval-3"></path>
                <ellipse id="Oval-2" cx="21.4347853" cy="8.74513789" rx="2.40031212" ry="2.47019733"></ellipse>
                <path d="M19.1519241,21.9653735 C20.0371057,20.7486883 20.2733439,20.0637039 20.2733439,18.3176537 C20.2733439,14.5001496 17.7080352,11.4054511 14.5435666,11.4054511 C11.3790979,11.4054511 8.81378925,14.5001496 8.81378925,18.3176537 C8.81378925,20.0659461 9.35182203,21.6626414 10.2390363,22.8799162 L19.1519241,21.9653735 Z" id="Oval-3"></path>
                <ellipse id="Oval-2" cx="14.3887077" cy="8.1873514" rx="3.09717693" ry="3.1873514"></ellipse>
            </g>
        </g>
    </g>
</svg>